<svg clip-rule="evenodd" fill-rule="evenodd" height="6.82666in" image-rendering="optimizeQuality" shape-rendering="geometricPrecision" text-rendering="geometricPrecision" viewBox="0 0 6.82666 6.82666" width="6.82666in" xmlns="http://www.w3.org/2000/svg"><path d="m0 0h6.82666v6.82666h-6.82666z" fill="none"/><path d="m0 0h6.82666v6.82666h-6.82666z" fill="none"/><path d="m.853331.853331h5.12v5.12h-5.12z" fill="none"/><g fill="#fffffe" fill-rule="nonzero"><path d="m3.41507 1.73526c.242024 0 .461157.0981181.61978.256732.158614.158622.256732.377756.256732.61978s-.0981181.461154-.256732.619776c-.158622.158614-.377756.256732-.61978.256732s-.461154-.0981181-.619776-.256732c-.158622-.158622-.256732-.377752-.256732-.619776s.0981102-.461157.256732-.61978c.158622-.158614.377752-.256732.619776-.256732zm.468945.407567c-.12-.12-.285803-.194228-.468945-.194228s-.348941.0742283-.468941.194228c-.120004.120004-.194228.285803-.194228.468945 0 .183138.0742244.348937.194228.468941.12.12.285799.194228.468941.194228s.348945-.0742283.468945-.194228c.12-.12.194228-.285803.194228-.468941 0-.183142-.0742283-.348945-.194228-.468945z"/><path d="m2.89684 3.17735-1.02191 1.02191-.15084-.15083 1.02191-1.02192z"/><path d="m1.45813 3.8818c.166992 0 .318197.0677008.42765.177154.109445.109445.17715.260657.17715.42765 0 .166992-.0677008.318197-.17715.42765-.109453.109449-.260657.17715-.42765.17715-.166992 0-.318205-.0677047-.42765-.17715-.109453-.109453-.177154-.260657-.177154-.42765 0-.166992.0677008-.318197.177154-.42765.109449-.109453.260657-.177154.42765-.177154zm.276815.327988c-.0708346-.0708346-.168705-.11465-.276815-.11465s-.205984.043815-.276815.11465c-.0708346.0708346-.11465.168705-.11465.276815s.043815.20598.11465.276815c.0708268.0708268.168705.114646.276815.114646s.20598-.043815.276815-.114646c.0708307-.0708346.114646-.168705.114646-.276815s-.0438189-.205988-.114646-.276815z"/><path d="m4.08066 3.02651 1.02191 1.02192-.15084.15083-1.02191-1.02191z"/><path d="m5.36853 4.09514c-.10811 0-.20598.043815-.276815.11465-.0708268.0708268-.114646.168705-.114646.276815s.043815.20598.114646.276815c.0708346.0708307.168705.114646.276815.114646s.205988-.0438189.276815-.114646c.0708346-.0708346.11465-.168705.11465-.276815s-.043815-.20598-.11465-.276815c-.0708307-.0708346-.168705-.11465-.276815-.11465zm-.42765-.036185c.109453-.109453.260657-.177154.42765-.177154.166992 0 .318201.0677008.42765.177154.109453.109453.177154.260657.177154.42765 0 .166992-.0677008.318197-.177154.42765-.109445.109445-.260657.17715-.42765.17715-.166992 0-.318197-.0677008-.42765-.17715-.109449-.109453-.17715-.260657-.17715-.42765 0-.166992.0677047-.318205.17715-.42765z"/><path d="m3.41507 3.8818c.166992 0 .318201.0677008.42765.177154.109453.109453.177154.260657.177154.42765 0 .166992-.0677008.318197-.177154.42765-.109445.109445-.260657.17715-.42765.17715-.166992 0-.318197-.0677008-.42765-.17715-.109449-.109453-.17715-.260657-.17715-.42765 0-.166992.0677047-.318205.17715-.42765.109453-.109453.260657-.177154.42765-.177154zm.276815.327988c-.0708307-.0708346-.168705-.11465-.276815-.11465s-.20598.043815-.276815.11465c-.0708268.0708268-.114646.168705-.114646.276815s.043815.20598.114646.276815c.0708346.0708307.168705.114646.276815.114646s.205988-.0438189.276815-.114646c.0708346-.0708346.11465-.168705.11465-.276815s-.043815-.20598-.11465-.276815z"/><path d="m3.52174 3.38161v.60686h-.21333v-.60686z"/></g></svg>